<?xml version="1.0" encoding="UTF-8" standalone="no"?>
<!-- Created with Inkscape (http://www.inkscape.org/) -->

<svg
   xmlns:dc="http://purl.org/dc/elements/1.1/"
   xmlns:cc="http://creativecommons.org/ns#"
   xmlns:rdf="http://www.w3.org/1999/02/22-rdf-syntax-ns#"
   xmlns:svg="http://www.w3.org/2000/svg"
   xmlns="http://www.w3.org/2000/svg"
   xmlns:sodipodi="http://sodipodi.sourceforge.net/DTD/sodipodi-0.dtd"
   xmlns:inkscape="http://www.inkscape.org/namespaces/inkscape"
   width="210mm"
   height="297mm"
   viewBox="0 0 744.09448819 1052.3622047"
   id="svg2"
   version="1.1"
   inkscape:version="0.91 r13725"
   sodipodi:docname="J_overlap_drawing.svg"
   inkscape:export-filename="/home/mitni349/Desktop/nmitchellhonours/Thesis/J_overlap_drawing.png"
   inkscape:export-xdpi="300"
   inkscape:export-ydpi="300">
  <sodipodi:namedview
     id="base"
     pagecolor="#ffffff"
     bordercolor="#666666"
     borderopacity="1.0"
     inkscape:pageopacity="0.0"
     inkscape:pageshadow="2"
     inkscape:zoom="1.4142136"
     inkscape:cx="400.7266"
     inkscape:cy="807.29487"
     inkscape:document-units="px"
     inkscape:current-layer="layer1"
     showgrid="true"
     inkscape:window-width="1855"
     inkscape:window-height="1056"
     inkscape:window-x="65"
     inkscape:window-y="24"
     inkscape:window-maximized="1">
    <inkscape:grid
       type="xygrid"
       id="grid3631" />
  </sodipodi:namedview>
  <defs
     id="defs4">
    <clipPath
       id="clipPath3441"
       clipPathUnits="userSpaceOnUse">
      <rect
         clip-path="none"
         y="64.432991"
         x="80.81221"
         height="494.97473"
         width="474.77173"
         id="rect3443"
         style="opacity:1;fill:none;fill-opacity:1;stroke:#550000;stroke-width:2.0999999;stroke-miterlimit:4;stroke-dasharray:none;stroke-dashoffset:32.99998093" />
    </clipPath>
  </defs>
  <metadata
     id="metadata7">
    <rdf:RDF>
      <cc:Work
         rdf:about="">
        <dc:format>image/svg+xml</dc:format>
        <dc:type
           rdf:resource="http://purl.org/dc/dcmitype/StillImage" />
        <dc:title></dc:title>
      </cc:Work>
    </rdf:RDF>
  </metadata>
  <g
     inkscape:label="Layer 1"
     inkscape:groupmode="layer"
     id="layer1">
    <path
       transform="matrix(1.2814012,0,0,0.51140419,-23.077682,43.885898)"
       clip-path="url(#clipPath3441)"
       inkscape:connector-curvature="0"
       style="opacity:1;fill:none;fill-opacity:1;stroke:#000000;stroke-width:1.48917294;stroke-miterlimit:4;stroke-dasharray:none;stroke-dashoffset:32.99998093"
       d="m 42.555365,308.60707 c 2.621566,-24.77152 5.243125,-49.53784 7.864683,-73.09815 2.621567,-23.56033 5.243126,-45.89994 7.864693,-65.9428 2.621558,-20.04287 5.243125,-37.76902 7.864683,-52.33249 2.621559,-14.56349 5.243126,-25.941029 7.864684,-33.599547 2.621575,-7.658524 5.243134,-11.57372 7.864692,-11.57761 2.621567,-0.0038 5.243126,3.926491 7.864693,11.57761 2.621558,7.651118 5.243117,19.042357 7.864675,33.599547 2.621572,14.55717 5.243122,32.29419 7.864702,52.33249 2.62156,20.03829 5.24312,42.38489 7.86468,65.9428 2.62156,23.55791 5.24313,48.32663 7.86469,73.09815 2.62156,24.77152 5.24312,49.53784 7.86468,73.09816 2.62156,23.56032 5.24313,45.89993 7.8647,65.9428 2.62155,20.04285 5.24312,37.769 7.86468,52.33248 2.62156,14.56352 5.24313,25.94104 7.86468,33.59955 2.62156,7.65855 5.24313,11.5737 7.86469,11.57761 2.62155,0.005 5.24313,-3.9265 7.86469,-11.57761 2.62157,-7.65106 5.24312,-19.04234 7.86469,-33.59955 2.62156,-14.55717 5.24312,-32.2942 7.86468,-52.33248 2.62156,-20.0383 5.24312,-42.38489 7.86469,-65.9428 2.62157,-23.55791 5.24313,-48.32664 7.86469,-73.09816 2.62157,-24.77152 5.24313,-49.53784 7.86469,-73.09815 2.62155,-23.56033 5.24312,-45.89994 7.86468,-65.9428 2.62157,-20.04287 5.24312,-37.76902 7.86469,-52.33249 2.62157,-14.56349 5.24313,-25.941029 7.86469,-33.599547 2.62156,-7.658524 5.24312,-11.57372 7.86469,-11.57761 2.62156,-0.0038 5.24312,3.926491 7.86468,11.57761 2.62157,7.651118 5.24312,19.042357 7.86469,33.599547 2.62156,14.55717 5.24313,32.29419 7.86469,52.33249 2.62156,20.03829 5.24312,42.38489 7.86469,65.9428 2.62156,23.55791 5.24312,48.32663 7.86467,73.09815 2.62157,24.77152 5.24313,49.53784 7.86471,73.09816 2.62155,23.56032 5.24312,45.89993 7.86468,65.9428 2.62156,20.04285 5.24312,37.769 7.86468,52.33248 2.62156,14.56352 5.24313,25.94104 7.8647,33.59955 2.62155,7.65855 5.24313,11.5737 7.86469,11.57761 2.62156,0.005 5.24311,-3.9265 7.86468,-11.57761 2.62156,-7.65106 5.24313,-19.04234 7.86468,-33.59955 2.62157,-14.55717 5.24313,-32.2942 7.86469,-52.33248 2.62156,-20.0383 5.24313,-42.38489 7.86469,-65.9428 2.62157,-23.55791 5.24313,-48.32664 7.86469,-73.09816 2.62156,-24.77152 5.24312,-49.53784 7.86468,-73.09815 2.62157,-23.56033 5.24312,-45.89994 7.86469,-65.9428 2.62157,-20.04287 5.24313,-37.76902 7.86469,-52.33249 2.62157,-14.56349 5.24313,-25.941029 7.86469,-33.599547 2.62156,-7.658524 5.24312,-11.57372 7.86468,-11.57761 2.62157,-0.0038 5.24313,3.926491 7.8647,11.57761 2.62156,7.651118 5.24312,19.042357 7.86469,33.599547 2.62155,14.55717 5.24311,32.29419 7.86468,52.33249 2.62156,20.03829 5.24312,42.38489 7.86468,65.9428 2.62156,23.55791 5.24312,48.32663 7.8647,73.09815 2.62155,24.77152 5.24312,49.53784 7.86468,73.09816 2.62157,23.56032 5.24312,45.89993 7.86468,65.9428 2.62157,20.04285 5.24313,37.769 7.86469,52.33248 2.62156,14.56352 5.24313,25.94104 7.8647,33.59955 2.62156,7.65855 5.24311,11.5737 7.86467,11.57761 2.62155,0.005 5.24311,-3.9265 7.86467,-11.57761 2.62161,-7.65106 5.24317,-19.04234 7.86472,-33.59955 2.62156,-14.55717 5.24311,-32.2942 7.86467,-52.33248 2.62156,-20.0383 5.24312,-42.38489 7.86468,-65.9428 2.6216,-23.55791 5.24316,-48.32664 7.86472,-73.09816 2.62155,-24.77152 5.24311,-49.53784 7.86467,-73.09815 2.62155,-23.56033 5.24311,-45.89994 7.86467,-65.9428 2.62161,-20.04287 5.24317,-37.76902 7.86472,-52.33249 2.62155,-14.56349 5.24311,-25.941029 7.86467,-33.599547 2.62156,-7.658524 5.24312,-11.57372 7.86468,-11.57761 2.6216,-0.0038 5.24316,3.926491 7.86471,11.57761 2.62156,7.651118 5.24312,19.042357 7.86468,33.599547 2.62155,14.55717 5.24311,32.29419 7.86467,52.33249 2.62155,20.03829 5.24311,42.38489 7.86471,65.9428 2.62156,23.55791 5.24312,48.32663 7.86468,73.09815 2.62156,24.77152 5.24312,49.53784 7.86467,73.09816 2.62156,23.56032 5.24312,45.89993 7.86472,65.9428 2.62156,20.04285 5.24312,37.769 7.86469,52.33248 2.62156,14.56352 5.24312,25.94104 7.86467,33.59955 2.62156,7.65855 5.24312,11.5737 7.86473,11.57761 2.62156,0.005 5.24311,-3.9265 7.86466,-11.57761 2.62156,-7.65106 5.24312,-19.04234 7.86468,-33.59955 2.62156,-14.55717 5.24312,-32.2942 7.86472,-52.33248 2.62156,-20.0383 5.24311,-42.38489 7.86467,-65.9428 2.62156,-23.55791 5.24312,-48.32664 7.86468,-73.09816"
       title="sin(x)"
       id="path3432" />
    <path
       id="path3471"
       title="e^(-x*x)"
       d=""
       style="opacity:1;fill:none;fill-opacity:1;stroke:#550000;stroke-width:2.0999999;stroke-miterlimit:4;stroke-dasharray:none;stroke-dashoffset:32.99998093" />
    <path
       style="opacity:1;fill:none;fill-opacity:1;stroke:#550000;stroke-width:2.0999999;stroke-miterlimit:4;stroke-dasharray:none;stroke-dashoffset:32.99998093"
       d=""
       title="e^(-x*x)"
       id="path3491" />
    <path
       id="path3605"
       title="exp(-x*x)"
       d="m 224.93921,321.97122 c 1.33092,-0.0443 2.66183,-0.095 3.99276,-0.15401 1.33093,-0.059 2.66184,-0.12629 3.99276,-0.20419 1.33092,-0.0779 2.66185,-0.16644 3.99277,-0.26843 1.33091,-0.10198 2.66182,-0.21748 3.99274,-0.34984 1.33093,-0.13237 2.66185,-0.28172 3.99276,-0.45206 1.33093,-0.17032 2.66184,-0.36175 3.99277,-0.57904 1.33092,-0.21727 2.66183,-0.46053 3.99276,-0.73528 1.33093,-0.27473 2.66184,-0.58113 3.99275,-0.92549 1.33092,-0.34434 2.66184,-0.72687 3.99277,-1.15466 1.33092,-0.42779 2.66183,-0.90112 3.99275,-1.42783 1.33093,-0.52672 2.66185,-1.10716 3.99276,-1.74986 1.33093,-0.64271 2.66186,-1.34807 3.99277,-2.12522 1.33091,-0.77714 2.66182,-1.62652 3.99275,-2.55764 1.33093,-0.93113 2.66184,-1.94452 3.99276,-3.04984 1.33092,-1.10534 2.66184,-2.30317 3.99277,-3.60304 1.33091,-1.29988 2.66183,-2.70242 3.99275,-4.21663 1.33092,-1.51421 2.66184,-3.14078 3.99275,-4.88775 1.33093,-1.74699 2.66185,-3.61512 3.99277,-5.611 1.33092,-1.9959 2.66183,-4.12035 3.99276,-6.37803 1.33093,-2.25767 2.66184,-4.64939 3.99276,-7.17734 1.33092,-2.52796 2.66183,-5.193 3.99276,-7.99431 1.33091,-2.80131 2.66183,-5.73975 3.99275,-8.81103 1.33093,-3.0713 2.66185,-6.27626 3.99276,-9.60674 1.33093,-3.33049 2.66185,-6.78727 3.99277,-10.35804 1.33092,-3.57076 2.66183,-7.25617 3.99275,-11.0396 1.33093,-3.78342 2.66184,-7.66542 3.99276,-11.62497 1.33091,-3.95955 2.66184,-7.99709 3.99277,-12.08739 1.33091,-4.09032 2.66183,-8.23368 3.99276,-12.40102 1.33092,-4.16736 2.66183,-8.3588 3.99275,-12.54201 1.33091,-4.1832 2.66184,-8.35806 3.99276,-12.48972 1.33092,-4.13166 2.66183,-8.21981 3.99276,-12.228 1.33093,-4.00818 2.66184,-7.93586 3.99276,-11.74604 1.33091,-3.8102 2.66184,-7.50213 3.99276,-11.03948 1.33092,-3.53735 2.66183,-6.91912 3.99276,-10.11087 1.33091,-3.19172 2.66184,-6.19222 3.99275,-8.9701 1.33092,-2.7779 2.66185,-5.33177 3.99277,-7.63453 1.33092,-2.30276 2.66183,-4.352822 3.99276,-6.128372 1.33092,-1.77554 2.66183,-3.27485 3.99275,-4.48226 1.33092,-1.2074 2.66184,-2.12108 3.99277,-2.73213 1.33091,-0.61104 2.66183,-0.91763 3.99276,-0.91793 1.33091,-3.1e-4 2.66183,0.30749 3.99275,0.91793 1.33092,0.61045 2.66185,1.52532 3.99277,2.73213 1.33091,1.20682 2.66182,2.70727 3.99275,4.48226 1.33092,1.77499 2.66184,3.826122 3.99276,6.128372 1.33092,2.30225 2.66184,4.85708 3.99276,7.63453 1.33091,2.77744 2.66184,5.77876 3.99277,8.9701 1.33091,3.19137 2.66183,6.57383 3.99274,10.11087 1.33092,3.53704 2.66185,7.22952 3.99277,11.03948 1.33091,3.80995 2.66183,7.73803 3.99276,11.74604 1.33092,4.00803 2.66183,8.09642 3.99276,12.228 1.33092,4.13157 2.66184,8.30654 3.99276,12.48972 1.33091,4.1832 2.66183,8.3746 3.99276,12.54201 1.33091,4.16738 2.66183,8.3106 3.99275,12.40102 1.33092,4.09041 2.66185,8.12769 3.99276,12.08739 1.33092,3.9597 2.66185,7.84135 3.99277,11.62497 1.33091,3.78363 2.66183,7.46861 3.99275,11.0396 1.33092,3.571 2.66184,7.0273 3.99276,10.35804 1.33091,3.33073 2.66184,6.53517 3.99277,9.60674 1.33091,3.07154 2.66183,6.00944 3.99275,8.81103 1.33091,2.80159 2.66184,5.46607 3.99275,7.99431 1.33092,2.52823 2.66185,4.9194 3.99277,7.17734 1.33092,2.25794 2.66183,4.38186 3.99276,6.37803 1.33092,1.99614 2.66184,3.86378 3.99276,5.611 1.33091,1.74721 2.66183,3.37332 3.99276,4.88775 1.33091,1.51443 2.66183,2.91655 3.99276,4.21663 1.33091,1.30007 2.66184,2.49752 3.99275,3.60304 1.33092,1.1055 2.66185,2.11854 3.99277,3.04984 1.33092,0.93128 2.66183,1.78036 3.99274,2.55764 1.33093,0.7773 2.66185,1.48239 3.99277,2.12522 1.33091,0.64283 2.66184,1.22303 3.99277,1.74986 1.33091,0.52682 2.66183,0.99995 3.99276,1.42783 1.33091,0.42789 2.66184,0.81024 3.99275,1.15466 1.33091,0.34443 2.66184,0.65069 3.99275,0.92549 1.33093,0.27481 2.66184,0.51795 3.99276,0.73528 1.33093,0.21733 2.66185,0.40867 3.99277,0.57904 1.33091,0.17038 2.66184,0.31965 3.99277,0.45206 1.33091,0.1324 2.66182,0.24783 3.99274,0.34984 1.33092,0.10202 2.66185,0.19051 3.99276,0.26843 1.33092,0.0779 2.66185,0.14519 3.99276,0.20419 1.33093,0.059 2.66184,0.1097 3.99276,0.15401"
       style="opacity:1;fill:none;fill-opacity:1;stroke:#ff0000;stroke-width:1.72481012;stroke-miterlimit:4;stroke-dasharray:none;stroke-dashoffset:32.99998093"
       inkscape:connector-curvature="0" />
    <text
       xml:space="preserve"
       style="font-style:normal;font-weight:normal;font-size:33.12123489px;line-height:125%;font-family:sans-serif;letter-spacing:0px;word-spacing:0px;baseline-shift:baseline;fill:#000000;fill-opacity:1;stroke:none;stroke-width:1px;stroke-linecap:butt;stroke-linejoin:miter;stroke-opacity:1"
       x="471.83057"
       y="72.100975"
       id="text4456"
       sodipodi:linespacing="125%"><tspan
         sodipodi:role="line"
         id="tspan4458"
         x="471.83057"
         y="72.100975"
         style="font-style:normal;font-variant:normal;font-weight:normal;font-stretch:normal;font-family:'Times New Roman';-inkscape-font-specification:'Times New Roman, '">V<tspan
   style="font-style:normal;font-variant:normal;font-weight:normal;font-stretch:normal;font-size:21.52880096px;font-family:'Times New Roman';-inkscape-font-specification:'Times New Roman, ';baseline-shift:sub"
   id="tspan4460">lattice</tspan></tspan></text>
    <path
       id="path3605-7"
       title="exp(-x*x)"
       d="m 22.071316,321.97122 c 1.330926,-0.0443 2.661836,-0.095 3.992763,-0.15402 1.330926,-0.059 2.661836,-0.12629 3.992762,-0.20418 1.330918,-0.0779 2.661845,-0.16645 3.992763,-0.26844 1.330918,-0.10197 2.661828,-0.21748 3.992746,-0.34984 1.330926,-0.13237 2.661844,-0.28172 3.992763,-0.45206 1.330926,-0.17032 2.661836,-0.36175 3.992762,-0.57904 1.330926,-0.21727 2.661836,-0.46053 3.992763,-0.73528 1.330926,-0.27473 2.661836,-0.58113 3.992754,-0.92549 1.330918,-0.34434 2.661836,-0.72687 3.992763,-1.15466 1.330918,-0.42779 2.661836,-0.90112 3.992754,-1.42783 1.330926,-0.52672 2.661844,-1.10716 3.992763,-1.74986 1.330926,-0.64271 2.661852,-1.34807 3.992762,-2.12522 1.330918,-0.77714 2.661828,-1.62652 3.992755,-2.55764 1.330926,-0.93113 2.661836,-1.94451 3.992762,-3.04984 1.330918,-1.10534 2.661836,-2.30317 3.992763,-3.60304 1.330918,-1.29988 2.661836,-2.70241 3.992754,-4.21663 1.330919,-1.51421 2.661837,-3.14078 3.992755,-4.88775 1.330926,-1.74698 2.661844,-3.61512 3.992762,-5.611 1.330927,-1.9959 2.661836,-4.12035 3.992763,-6.37803 1.330926,-2.25767 2.661832,-4.64939 3.992762,-7.17734 1.33092,-2.52796 2.66183,-5.193 3.99275,-7.99431 1.33092,-2.80131 2.66184,-5.73975 3.99276,-8.81103 1.33093,-3.0713 2.66184,-6.27626 3.99276,-9.60674 1.33093,-3.33049 2.66185,-6.78727 3.99276,-10.35803 1.33093,-3.57077 2.66184,-7.25618 3.99276,-11.03961 1.33093,-3.78342 2.66184,-7.66542 3.99276,-11.62497 1.33091,-3.95955 2.66184,-7.99708 3.99276,-12.08739 1.33092,-4.09031 2.66184,-8.23368 3.99277,-12.40102 1.33091,-4.16736 2.66183,-8.35879 3.99275,-12.542 1.33091,-4.18321 2.66184,-8.35806 3.99276,-12.48972 1.33092,-4.13166 2.66183,-8.21981 3.99276,-12.228 1.33092,-4.00818 2.66183,-7.93586 3.99276,-11.74604 1.33091,-3.8102 2.66184,-7.50213 3.99276,-11.03948 1.33092,-3.53735 2.66183,-6.91912 3.99276,-10.11087 1.33091,-3.19172 2.66183,-6.19222 3.99275,-8.9701 1.33092,-2.7779 2.66185,-5.33177 3.99277,-7.63453 1.33092,-2.30276 2.66183,-4.352822 3.99276,-6.128372 1.33093,-1.77554 2.66184,-3.27485 3.99275,-4.48226 1.33092,-1.2074 2.66184,-2.12108 3.99277,-2.73213 1.33091,-0.61104 2.66183,-0.91763 3.99276,-0.91793 1.33091,-3.1e-4 2.66184,0.30749 3.99275,0.91793 1.33092,0.61045 2.66185,1.52532 3.99277,2.73213 1.33091,1.20682 2.66182,2.70727 3.99275,4.48226 1.33092,1.77499 2.66184,3.826122 3.99276,6.128372 1.33092,2.30225 2.66184,4.85708 3.99277,7.63453 1.33091,2.77744 2.66183,5.77876 3.99276,8.9701 1.33091,3.19137 2.66183,6.57383 3.99275,10.11087 1.33091,3.53704 2.66184,7.22952 3.99276,11.03948 1.33092,3.80995 2.66183,7.73803 3.99276,11.74604 1.33092,4.00803 2.66184,8.09642 3.99276,12.228 1.33092,4.13157 2.66184,8.30653 3.99276,12.48972 1.33091,4.18319 2.66183,8.37459 3.99276,12.542 1.33091,4.16739 2.66184,8.3106 3.99275,12.40102 1.33092,4.09041 2.66185,8.12769 3.99277,12.08739 1.33092,3.9597 2.66184,7.84135 3.99276,11.62497 1.33091,3.78363 2.66183,7.46861 3.99275,11.03961 1.33092,3.57099 2.66184,7.02729 3.99277,10.35803 1.33091,3.33073 2.66183,6.53517 3.99276,9.60674 1.33091,3.07154 2.66184,6.00944 3.99275,8.81103 1.33091,2.80159 2.66184,5.46608 3.99275,7.99431 1.33093,2.52823 2.66185,4.9194 3.99277,7.17734 1.33092,2.25794 2.66184,4.38187 3.99276,6.37803 1.33092,1.99614 2.66184,3.86378 3.99277,5.611 1.33091,1.74721 2.66182,3.37332 3.99275,4.88775 1.33091,1.51444 2.66184,2.91655 3.99276,4.21663 1.33091,1.30007 2.66184,2.49752 3.99275,3.60304 1.33093,1.10551 2.66185,2.11854 3.99277,3.04984 1.33092,0.93128 2.66184,1.78036 3.99275,2.55764 1.33092,0.7773 2.66184,1.48239 3.99276,2.12522 1.33092,0.64283 2.66184,1.22303 3.99277,1.74986 1.33091,0.52682 2.66184,0.99995 3.99276,1.42783 1.33091,0.42789 2.66184,0.81024 3.99275,1.15466 1.33092,0.34443 2.66184,0.6507 3.99275,0.92549 1.33093,0.27481 2.66185,0.51796 3.99276,0.73528 1.33093,0.21734 2.66185,0.40867 3.99277,0.57904 1.33092,0.17038 2.66184,0.31966 3.99277,0.45206 1.33091,0.1324 2.66183,0.24783 3.99274,0.34984 1.33092,0.10202 2.66185,0.19052 3.99276,0.26844 1.33092,0.0779 2.66185,0.14518 3.99276,0.20418 1.33093,0.059 2.66185,0.10971 3.99276,0.15402"
       style="opacity:1;fill:none;fill-opacity:1;stroke:#0000ff;stroke-width:1.72481012;stroke-miterlimit:4;stroke-dasharray:none;stroke-dashoffset:32.99998093"
       inkscape:connector-curvature="0" />
    <path
       style="opacity:1;fill:#008000;fill-opacity:1;stroke:none;stroke-width:1.89999998;stroke-miterlimit:4;stroke-dasharray:none;stroke-dashoffset:32.99998093"
       d="m 231.25259,322.61723 c 14.92879,-0.77122 25.269,-2.62288 34.02476,-6.09294 6.21551,-2.46332 11.74459,-5.81863 16.96455,-10.29488 l 0.97086,-0.83255 0.35345,0.30273 c 4.44399,3.8064 8.13767,6.31652 12.6201,8.57628 9.79089,4.93594 20.59715,7.28386 38.21019,8.30208 0.75639,0.0438 -22.27908,0.0776 -51.18994,0.0752 -28.91086,-0.002 -52.29014,-0.0185 -51.95397,-0.0359 z"
       id="path4500"
       inkscape:connector-curvature="0" />
    <text
       xml:space="preserve"
       style="font-style:normal;font-weight:normal;font-size:66.10639191px;line-height:125%;font-family:sans-serif;letter-spacing:0px;word-spacing:0px;baseline-shift:baseline;fill:#000000;fill-opacity:1;stroke:none;stroke-width:1px;stroke-linecap:butt;stroke-linejoin:miter;stroke-opacity:1"
       x="271.30539"
       y="285.00577"
       id="text4456-3"
       sodipodi:linespacing="125%"><tspan
         sodipodi:role="line"
         id="tspan4458-5"
         x="271.30539"
         y="285.00577"
         style="font-style:normal;font-variant:normal;font-weight:normal;font-stretch:normal;font-family:'Times New Roman';-inkscape-font-specification:'Times New Roman, ';fill:#008000">J</tspan></text>
    <text
       xml:space="preserve"
       style="font-style:normal;font-weight:normal;font-size:27.20071411px;line-height:125%;font-family:sans-serif;letter-spacing:0px;word-spacing:0px;fill:#000000;fill-opacity:1;stroke:none;stroke-width:1px;stroke-linecap:butt;stroke-linejoin:miter;stroke-opacity:1"
       x="341.10095"
       y="71.450981"
       id="text4561"
       sodipodi:linespacing="125%"><tspan
         sodipodi:role="line"
         id="tspan4563"
         x="341.10095"
         y="71.450981"
         style="font-style:italic;font-variant:normal;font-weight:normal;font-stretch:normal;font-family:'Times New Roman';-inkscape-font-specification:'Times New Roman, Italic';fill:#ff0000"
         rotate="0 0 0 0 0 0 0 0">Ψ(R<tspan
   style="font-size:65%;baseline-shift:sub;fill:#ff0000"
   id="tspan4613">2</tspan>;r)</tspan></text>
    <text
       xml:space="preserve"
       style="font-style:normal;font-weight:normal;font-size:27.20071411px;line-height:125%;font-family:sans-serif;letter-spacing:0px;word-spacing:0px;fill:#000000;fill-opacity:1;stroke:none;stroke-width:1px;stroke-linecap:butt;stroke-linejoin:miter;stroke-opacity:1"
       x="141.10095"
       y="71.450974"
       id="text4561-2"
       sodipodi:linespacing="125%"><tspan
         sodipodi:role="line"
         id="tspan4563-9"
         x="141.10095"
         y="71.450974"
         style="font-style:italic;font-variant:normal;font-weight:normal;font-stretch:normal;font-family:'Times New Roman';-inkscape-font-specification:'Times New Roman, Italic';fill:#0000ff"
         rotate="0 0 0 0 0 0 0 0">Ψ(R<tspan
   style="font-size:17.68046379px;baseline-shift:sub;fill:#0000ff"
   id="tspan4584-1">1</tspan>;r)</tspan></text>
  </g>
</svg>
